<mxfile host="www.draw.io" modified="2019-12-15T14:36:13.652Z" agent="Mozilla/5.0 (Windows NT 10.0; Win64; x64) AppleWebKit/537.36 (KHTML, like Gecko) Chrome/78.0.3904.108 Safari/537.36" etag="tlJpUqg7YW0kbsqtnWNC" version="12.4.2" type="github" pages="1">
  <diagram id="EgZF_dInh8L2QWsLwDzD" name="第 1 页">
    <mxGraphModel dx="1185" dy="620" grid="1" gridSize="10" guides="1" tooltips="1" connect="1" arrows="1" fold="1" page="1" pageScale="1" pageWidth="827" pageHeight="1169" math="0" shadow="0">
      <root>
        <mxCell id="0"/>
        <mxCell id="1" parent="0"/>
        <mxCell id="A8v4lW4-uIJiiix9dMnX-60" value="" style="rounded=1;whiteSpace=wrap;html=1;fillColor=none;" vertex="1" parent="1">
          <mxGeometry x="540" y="520" width="160" height="250" as="geometry"/>
        </mxCell>
        <mxCell id="A8v4lW4-uIJiiix9dMnX-63" value="&lt;font style=&quot;font-size: 18px&quot; color=&quot;#6c8ebf&quot;&gt;客户端B&lt;/font&gt;" style="text;html=1;strokeColor=none;fillColor=none;align=center;verticalAlign=middle;whiteSpace=wrap;rounded=0;" vertex="1" parent="1">
          <mxGeometry x="574" y="730" width="90" height="30" as="geometry"/>
        </mxCell>
        <mxCell id="A8v4lW4-uIJiiix9dMnX-55" value="" style="rounded=1;whiteSpace=wrap;html=1;fillColor=none;" vertex="1" parent="1">
          <mxGeometry x="39" y="520" width="160" height="250" as="geometry"/>
        </mxCell>
        <mxCell id="A8v4lW4-uIJiiix9dMnX-53" value="" style="shape=flexArrow;endArrow=classic;html=1;fillColor=#f5f5f5;strokeColor=#666666;endWidth=16.004756242568373;endSize=10.966990291262135;width=36.89320388349514;" edge="1" parent="1">
          <mxGeometry width="50" height="50" relative="1" as="geometry">
            <mxPoint x="207.5" y="569.7900000000001" as="sourcePoint"/>
            <mxPoint x="295" y="570" as="targetPoint"/>
          </mxGeometry>
        </mxCell>
        <mxCell id="A8v4lW4-uIJiiix9dMnX-27" value="&lt;font color=&quot;#b85450&quot;&gt;&lt;font style=&quot;font-size: 11px&quot;&gt;ProtoBuf格式&lt;/font&gt;&lt;br&gt;&lt;span style=&quot;font-size: 16px&quot;&gt;录像文件&lt;/span&gt;&lt;/font&gt;" style="rounded=1;whiteSpace=wrap;html=1;fillColor=#f8cecc;strokeColor=#b85450;" vertex="1" parent="1">
          <mxGeometry x="59" y="660" width="120" height="60" as="geometry"/>
        </mxCell>
        <mxCell id="A8v4lW4-uIJiiix9dMnX-31" value="" style="shape=flexArrow;endArrow=classic;html=1;fillColor=#f5f5f5;strokeColor=#666666;endWidth=40;endSize=6.72;width=75;exitX=0.5;exitY=1;exitDx=0;exitDy=0;" edge="1" parent="1" source="A8v4lW4-uIJiiix9dMnX-32">
          <mxGeometry width="50" height="50" relative="1" as="geometry">
            <mxPoint x="120.34999999999997" y="660" as="sourcePoint"/>
            <mxPoint x="120.34999999999997" y="610" as="targetPoint"/>
          </mxGeometry>
        </mxCell>
        <mxCell id="A8v4lW4-uIJiiix9dMnX-32" value="&lt;font style=&quot;font-size: 14px&quot; color=&quot;#666666&quot;&gt;BASE64&lt;/font&gt;" style="text;html=1;strokeColor=none;fillColor=none;align=center;verticalAlign=middle;whiteSpace=wrap;rounded=0;rotation=0;" vertex="1" parent="1">
          <mxGeometry x="72.69999999999999" y="619.16" width="96.3" height="31.68" as="geometry"/>
        </mxCell>
        <mxCell id="A8v4lW4-uIJiiix9dMnX-34" value="&lt;font color=&quot;#ffffff&quot;&gt;&lt;font style=&quot;font-size: 11px&quot;&gt;BASE64格式&lt;/font&gt;&lt;br&gt;&lt;span style=&quot;font-size: 16px&quot;&gt;录像数据字符串&lt;/span&gt;&lt;/font&gt;" style="rounded=1;whiteSpace=wrap;html=1;fillColor=#B85450;strokeColor=none;" vertex="1" parent="1">
          <mxGeometry x="59" y="540" width="120" height="60" as="geometry"/>
        </mxCell>
        <mxCell id="A8v4lW4-uIJiiix9dMnX-38" value="&lt;font color=&quot;#ffffff&quot; style=&quot;font-size: 16px&quot;&gt;Web服务器&lt;/font&gt;" style="rounded=1;whiteSpace=wrap;html=1;fillColor=#666666;strokeColor=#666666;fontColor=#333333;" vertex="1" parent="1">
          <mxGeometry x="300" y="540" width="120" height="60" as="geometry"/>
        </mxCell>
        <mxCell id="A8v4lW4-uIJiiix9dMnX-39" value="&lt;font style=&quot;font-size: 16px&quot; color=&quot;#666666&quot;&gt;数据库&lt;/font&gt;" style="rounded=1;whiteSpace=wrap;html=1;fillColor=#f5f5f5;strokeColor=#666666;fontColor=#333333;" vertex="1" parent="1">
          <mxGeometry x="300" y="660" width="120" height="60" as="geometry"/>
        </mxCell>
        <mxCell id="A8v4lW4-uIJiiix9dMnX-42" value="" style="shape=flexArrow;endArrow=classic;startArrow=classic;html=1;fillColor=#f5f5f5;strokeColor=#666666;endWidth=23.828775267538642;endSize=5.109302325581395;width=23.448275862068968;startWidth=23.828775267538642;startSize=5.109302325581395;" edge="1" parent="1">
          <mxGeometry width="50" height="50" relative="1" as="geometry">
            <mxPoint x="360.5" y="656" as="sourcePoint"/>
            <mxPoint x="360.5" y="606" as="targetPoint"/>
          </mxGeometry>
        </mxCell>
        <mxCell id="A8v4lW4-uIJiiix9dMnX-43" value="" style="group" vertex="1" connectable="0" parent="1">
          <mxGeometry x="430" y="555" width="90" height="30" as="geometry"/>
        </mxCell>
        <mxCell id="A8v4lW4-uIJiiix9dMnX-44" value="" style="shape=flexArrow;endArrow=classic;html=1;fillColor=#f5f5f5;strokeColor=#666666;endWidth=16.004756242568373;endSize=10.193103448275862;width=55.17241379310345;" edge="1" parent="A8v4lW4-uIJiiix9dMnX-43">
          <mxGeometry width="50" height="50" relative="1" as="geometry">
            <mxPoint x="5" y="15.580000000000013" as="sourcePoint"/>
            <mxPoint x="100" y="16" as="targetPoint"/>
          </mxGeometry>
        </mxCell>
        <mxCell id="A8v4lW4-uIJiiix9dMnX-45" value="&lt;div style=&quot;text-align: left&quot;&gt;&lt;span style=&quot;font-size: 14px ; color: rgb(102 , 102 , 102)&quot;&gt;页面下载&lt;/span&gt;&lt;/div&gt;&lt;font style=&quot;font-size: 14px&quot; color=&quot;#666666&quot;&gt;&lt;div style=&quot;text-align: left&quot;&gt;&lt;span&gt;游戏内下载&lt;/span&gt;&lt;/div&gt;&lt;div style=&quot;text-align: left&quot;&gt;&lt;span&gt;播放器下载&lt;/span&gt;&lt;/div&gt;&lt;/font&gt;" style="text;html=1;strokeColor=none;fillColor=none;align=center;verticalAlign=middle;whiteSpace=wrap;rounded=0;" vertex="1" parent="A8v4lW4-uIJiiix9dMnX-43">
          <mxGeometry width="90" height="30" as="geometry"/>
        </mxCell>
        <mxCell id="A8v4lW4-uIJiiix9dMnX-50" value="&lt;font style=&quot;color: rgb(255 , 255 , 255) ; font-size: 11px&quot;&gt;BASE64格式&lt;/font&gt;&lt;br style=&quot;color: rgb(255 , 255 , 255)&quot;&gt;&lt;span style=&quot;color: rgb(255 , 255 , 255) ; font-size: 16px&quot;&gt;录像文件&lt;/span&gt;" style="rounded=1;whiteSpace=wrap;html=1;fillColor=#6C8EBF;strokeColor=none;" vertex="1" parent="1">
          <mxGeometry x="559" y="540" width="120" height="60" as="geometry"/>
        </mxCell>
        <mxCell id="A8v4lW4-uIJiiix9dMnX-51" value="&lt;font color=&quot;#6c8ebf&quot;&gt;&lt;font&gt;&lt;font style=&quot;font-size: 16px&quot;&gt;本地&lt;/font&gt;&lt;br&gt;&lt;/font&gt;&lt;span style=&quot;text-align: left ; white-space: nowrap&quot;&gt;&lt;font style=&quot;font-size: 12px&quot;&gt;PersistentDataPath&lt;/font&gt;&lt;/span&gt;&lt;/font&gt;" style="rounded=1;whiteSpace=wrap;html=1;fillColor=#dae8fc;strokeColor=#6c8ebf;" vertex="1" parent="1">
          <mxGeometry x="559" y="660" width="120" height="60" as="geometry"/>
        </mxCell>
        <mxCell id="A8v4lW4-uIJiiix9dMnX-37" value="&lt;font color=&quot;#666666&quot;&gt;&lt;font style=&quot;font-size: 12px&quot;&gt;HttpRequest&lt;/font&gt;&lt;br&gt;&lt;span style=&quot;font-size: 14px&quot;&gt;上传&lt;/span&gt;&lt;/font&gt;" style="text;html=1;strokeColor=none;fillColor=none;align=center;verticalAlign=middle;whiteSpace=wrap;rounded=0;" vertex="1" parent="1">
          <mxGeometry x="214.99666666666667" y="555" width="60" height="30" as="geometry"/>
        </mxCell>
        <mxCell id="A8v4lW4-uIJiiix9dMnX-54" value="" style="shape=flexArrow;endArrow=classic;html=1;fillColor=#f5f5f5;strokeColor=#666666;endWidth=24.666666666666668;endSize=4.61;width=25;" edge="1" parent="1">
          <mxGeometry width="50" height="50" relative="1" as="geometry">
            <mxPoint x="619.08" y="606.77" as="sourcePoint"/>
            <mxPoint x="618.83" y="650.8433333333334" as="targetPoint"/>
          </mxGeometry>
        </mxCell>
        <mxCell id="A8v4lW4-uIJiiix9dMnX-56" value="&lt;font style=&quot;font-size: 18px&quot; color=&quot;#b85450&quot;&gt;客户端A&lt;/font&gt;" style="text;html=1;strokeColor=none;fillColor=none;align=center;verticalAlign=middle;whiteSpace=wrap;rounded=0;" vertex="1" parent="1">
          <mxGeometry x="72.7" y="730" width="90" height="30" as="geometry"/>
        </mxCell>
      </root>
    </mxGraphModel>
  </diagram>
</mxfile>
